<?xml version="1.0" encoding="utf-8"?>
<!-- Generator: Adobe Illustrator 16.0.0, SVG Export Plug-In . SVG Version: 6.00 Build 0)  -->
<!DOCTYPE svg PUBLIC "-//W3C//DTD SVG 1.1//EN" "http://www.w3.org/Graphics/SVG/1.1/DTD/svg11.dtd">
<svg version="1.1" id="Layer_1" xmlns="http://www.w3.org/2000/svg" xmlns:xlink="http://www.w3.org/1999/xlink" x="0px" y="0px"
	 width="64px" height="64px" viewBox="0 0 64 64" enable-background="new 0 0 64 64" xml:space="preserve">
<g id="Rectangle_23">
	<g>
		<path fill="#83AEDD" d="M44,15V1H20v14H1v48h62V15H44z M24,15V5h16v10H24z"/>
	</g>
</g>
<g id="Rectangle_24">
	<g>
		<path fill="#4477B6" d="M10,63h6V15h-6V63z M48,15v48h6V15H48z"/>
	</g>
</g>
<g id="Rectangle_2">
	<g>
		<path fill="#2B3139" d="M62,14H45V2c0-1.104-0.896-2-2-2H21c-1.104,0-2,0.896-2,2v12H2c-1.104,0-2,0.896-2,2v46
			c0,1.104,0.896,2,2,2h60c1.104,0,2-0.896,2-2V16C64,14.896,63.104,14,62,14z M21,2h22v12h-2V4H23v10h-2V2z M39,6v8H25V6H39z
			 M47,16v42H17V16H47z M2,62V16h7v42H5c-0.553,0-1,0.447-1,1s0.447,1,1,1h4v2H2z M11,62V16h4v46H11z M17,62v-2h30v2H17z M49,62V16
			h4v46H49z M62,62h-7v-2h4c0.553,0,1-0.447,1-1s-0.447-1-1-1h-4V16h7V62z"/>
	</g>
</g>
</svg>
