<?xml version="1.0" encoding="utf-8"?>
<!-- Generator: Adobe Illustrator 16.0.0, SVG Export Plug-In . SVG Version: 6.00 Build 0)  -->
<!DOCTYPE svg PUBLIC "-//W3C//DTD SVG 1.1//EN" "http://www.w3.org/Graphics/SVG/1.1/DTD/svg11.dtd">
<svg version="1.1" id="Layer_1" xmlns="http://www.w3.org/2000/svg" xmlns:xlink="http://www.w3.org/1999/xlink" x="0px" y="0px"
	 width="64px" height="64px" viewBox="0 0 64 64" enable-background="new 0 0 64 64" xml:space="preserve">
<g id="Rectangle_56">
	<g>
		<path fill="#EDF2F9" d="M32,1L2,28h60L32,1z M59,59v-4H5v4H1v4h62v-4H59z"/>
	</g>
</g>
<g id="Rectangle_55">
	<g>
		<path fill="#C2CDDC" d="M37,14c0-2.762-2.238-5-5-5s-5,2.238-5,5s2.238,5,5,5S37,16.762,37,14z M10,36h8v-4h-8V36z M22,36h8v-4h-8
			V36z M34,36h8v-4h-8V36z M46,32v4h8v-4H46z M10,55h8v-4h-8V55z M22,55h8v-4h-8V55z M34,55h8v-4h-8V55z M46,55h8v-4h-8V55z"/>
	</g>
</g>
<g id="Rectangle_57">
	<g>
		<path fill="#FFFFFF" d="M12,51h4V36h-4V51z M24,51h4V36h-4V51z M36,51h4V36h-4V51z M48,51h4V36h-4V51z M1,28v4h62v-4H1z"/>
	</g>
</g>
<g id="Ellipse_20">
	<g>
		<path fill="#2B3139" d="M55,35v-2h7c1.104,0,2-0.896,2-2v-3c0-0.001-0.013-0.016-0.019-0.021c0.005-0.298-0.101-0.594-0.338-0.799
			L32.623,0.249c-0.016-0.013-0.035-0.016-0.051-0.028c-0.073-0.055-0.148-0.098-0.231-0.129c-0.047-0.02-0.093-0.032-0.143-0.043
			C32.132,0.034,32.068,0.027,32,0.027s-0.132,0.007-0.199,0.021c-0.049,0.011-0.095,0.023-0.142,0.043
			c-0.083,0.031-0.158,0.074-0.231,0.129c-0.016,0.013-0.035,0.016-0.051,0.028L0.356,27.18c-0.237,0.205-0.343,0.501-0.338,0.799
			C0.013,27.984,0,27.999,0,28v3c0,1.104,0.896,2,2,2h7v2c0,1.104,0.896,2,2,2v13c-1.104,0-2,0.896-2,2v2H6c-1.104,0-2,0.896-2,2v2
			H2c-1.104,0-2,0.896-2,2v2c0,1.104,0.896,2,2,2h60c1.104,0,2-0.896,2-2v-2c0-1.104-0.896-2-2-2h-2v-2c0-1.104-0.896-2-2-2h-3v-2
			c0-1.104-0.896-2-2-2V37C54.104,37,55,36.104,55,35z M32,2.379L60.36,27H3.64L32,2.379z M2,31v-2h60v2H2z M53,52v2h-6v-2H53z
			 M49,50V37h2v13H49z M47,50c-1.104,0-2,0.896-2,2v2h-2v-2c0-1.104-0.896-2-2-2V37c1.104,0,2-0.896,2-2v-2h2v2c0,1.104,0.896,2,2,2
			V50z M29,50V37c1.104,0,2-0.896,2-2v-2h2v2c0,1.104,0.896,2,2,2v13c-1.104,0-2,0.896-2,2v2h-2v-2C31,50.896,30.104,50,29,50z
			 M17,50V37c1.104,0,2-0.896,2-2v-2h2v2c0,1.104,0.896,2,2,2v13c-1.104,0-2,0.896-2,2v2h-2v-2C19,50.896,18.104,50,17,50z M11,35
			v-2h6v2H11z M15,37v13h-2V37H15z M23,52h6v2h-6V52z M25,50V37h2v13H25z M23,35v-2h6v2H23z M35,52h6v2h-6V52z M37,50V37h2v13H37z
			 M35,35v-2h6v2H35z M11,52h6v2h-6V52z M62,60v2H2v-2H62z M58,56v2H6v-2H58z M47,35v-2h6v2H47z M32,20c3.313,0,6-2.687,6-6
			s-2.687-6-6-6s-6,2.687-6,6S28.687,20,32,20z M32,10c2.209,0,4,1.791,4,4s-1.791,4-4,4s-4-1.791-4-4S29.791,10,32,10z M43,23H21
			c-0.553,0-1,0.447-1,1s0.447,1,1,1h22c0.553,0,1-0.447,1-1S43.553,23,43,23z"/>
	</g>
</g>
</svg>
