<?xml version="1.0" encoding="utf-8"?>
<!-- Generator: Adobe Illustrator 16.0.0, SVG Export Plug-In . SVG Version: 6.00 Build 0)  -->
<!DOCTYPE svg PUBLIC "-//W3C//DTD SVG 1.1//EN" "http://www.w3.org/Graphics/SVG/1.1/DTD/svg11.dtd">
<svg version="1.1" id="Layer_1" xmlns="http://www.w3.org/2000/svg" xmlns:xlink="http://www.w3.org/1999/xlink" x="0px" y="0px"
	 width="64px" height="64px" viewBox="0 0 64 64" enable-background="new 0 0 64 64" xml:space="preserve">
<g id="Rounded_Rectangle_18">
	<g>
		<path fill="#6692C2" d="M43,34H21c-6.075,0-11,4.925-11,11v17h34c6.075,0,4.688,0,10,0V45C54,38.925,49.075,34,43,34z"/>
	</g>
</g>
<g id="Rectangle_44">
	<g>
		<polygon fill="#FFFFFF" points="24,34 32,57 40,34 		"/>
	</g>
</g>
<g id="Rounded_Rectangle_15">
	<g>
		<path fill="#FEE2D1" d="M32,1c-4.971,0-9,4.029-9,9v10c0,3.12,1.589,5.867,4,7.482V34h10v-6.518c2.411-1.615,4-4.362,4-7.482V10
			C41,5.029,36.971,1,32,1z"/>
	</g>
</g>
<g id="Rounded_Rectangle_16">
	<g>
		<path fill="#B08A77" d="M32,1c-4.641,0-8.458,3.513-8.945,8.024L32,13v-3l9,5v-5C41,5.029,36.971,1,32,1z M23,10
			c0-0.33,0.021-0.655,0.055-0.976L23,9V10z"/>
	</g>
</g>
<g id="Rectangle_45">
	<g>
		<path fill="#9FC5E9" d="M21,43l3,2v4l8,8l-8-23L21,43z M40,34l-8,23l8-8v-4l3-2L40,34z"/>
	</g>
</g>
<g id="Ellipse_45">
	<g>
		<path fill="#2B3139" d="M43,33h-2.742c-0.054-0.008-0.108,0.001-0.163,0H38v-5c0-0.004-0.002-0.008-0.002-0.012
			C40.424,26.163,42,23.269,42,20v-4.846c0.01-0.06,0.002-0.118,0-0.178V10c0-5.522-4.478-10-10-10S22,4.478,22,10v10
			c0,3.269,1.576,6.163,4.002,7.988C26.002,27.992,26,27.996,26,28v5h-2.095c-0.055,0.001-0.109-0.008-0.162,0H21
			c-6.628,0-12,5.373-12,12v15v2c0,1.104,0.896,2,2,2h42c1.104,0,2-0.896,2-2v-2V45C55,38.373,49.627,33,43,33z M41.692,42.725
			l-2.245,1.409c-0.288,0.182-0.437,0.509-0.443,0.846C39.004,44.987,39,44.993,39,45v0.044c0.001,0.032-0.004,0.063,0,0.096v3.382
			l-4.646,4.646l5.592-15.969L41.692,42.725z M38.638,35l-3.733,10.664L33,39l2-4h1h1H38.638z M28,33v-3.838
			C29.226,29.698,30.577,30,32,30c1.423,0,2.774-0.302,4-0.838V33H28z M32,2c4.418,0,8,3.582,8,8v3.297l-7.465-4.163
			c-0.039-0.021-0.082-0.023-0.123-0.04c-0.028-0.013-0.06-0.019-0.089-0.028c-0.087-0.026-0.171-0.049-0.26-0.053
			C32.041,9.012,32.022,9,32,9c-0.02,0-0.027,0.013-0.04,0.02c-0.337,0.02-0.658,0.178-0.84,0.48
			c-0.099,0.165-0.125,0.345-0.12,0.522v1.358l-6.466-3.247c-0.09-0.05-0.187-0.07-0.283-0.092C25.126,4.572,28.259,2,32,2z M24,20
			v-9.882l7.465,3.749c0.039,0.021,0.082,0.023,0.122,0.039c0.029,0.014,0.06,0.02,0.09,0.029c0.087,0.026,0.171,0.049,0.26,0.053
			C31.958,13.988,31.978,14,32,14s0.032-0.013,0.047-0.021c0.334-0.021,0.652-0.179,0.833-0.479c0.099-0.165,0.125-0.345,0.12-0.523
			v-1.273l7,3.904V20c0,4.418-3.582,8-8,8S24,24.418,24,20z M24.055,37.198l5.592,15.971L25,48.521v-3.381
			c0.004-0.033-0.001-0.064,0-0.098V45c0-0.007-0.004-0.013-0.004-0.02c-0.007-0.338-0.155-0.665-0.443-0.847l-2.245-1.409
			L24.055,37.198z M31,62c-3.832,0-8.369,0-14,0V47c0-0.553-0.447-1-1-1s-1,0.447-1,1v15c-1.285,0-2.603,0-4,0V45
			c0-5.522,4.477-10,10-10h1.463l-2.44,7.718c-0.008,0.028,0,0.057-0.006,0.085c-0.013,0.071-0.015,0.139-0.014,0.21
			c0.002,0.056,0,0.11,0.011,0.164c0.046,0.278,0.19,0.536,0.433,0.689L23,45.469v3.472c-0.025,0.296,0.062,0.6,0.289,0.826
			L31,57.478V62z M29.096,45.664L25.362,35H27h1h1l2,4L29.096,45.664z M53,62c-1.389,0-2.705,0-4,0V47c0-0.553-0.447-1-1-1
			s-1,0.447-1,1v15c-4.089,0-8.219,0-14,0v-4.522l7.711-7.711c0.226-0.226,0.313-0.527,0.289-0.822v-3.476l2.553-1.603
			c0.243-0.153,0.387-0.41,0.434-0.689c0.011-0.054,0.009-0.108,0.01-0.163c0.001-0.072,0-0.14-0.014-0.211
			c-0.006-0.028,0.002-0.057-0.006-0.085L41.537,35H43c5.522,0,10,4.478,10,10V62z"/>
	</g>
</g>
</svg>
